<?xml version="1.0" standalone="no"?>
<!DOCTYPE svg PUBLIC "-//W3C//DTD SVG 20010904//EN"
 "http://www.w3.org/TR/2001/REC-SVG-20010904/DTD/svg10.dtd">
<svg version="1.0" xmlns="http://www.w3.org/2000/svg"
 width="700.000000pt" height="700.000000pt" viewBox="0 0 700.000000 700.000000"
 preserveAspectRatio="xMidYMid meet">
<metadata>
Created by potrace 1.14, written by Peter Selinger 2001-2017
</metadata>
<g transform="translate(0.000000,700.000000) scale(0.100000,-0.100000)"
fill="#000000" stroke="none">
<path d="M3529 6985 c-82 -30 -118 -55 -151 -104 -25 -36 -23 -64 12 -166 48
-141 72 -237 63 -245 -4 -4 -62 -10 -128 -14 -66 -3 -129 -8 -140 -10 -11 -2
-47 -7 -80 -11 -33 -3 -103 -14 -155 -25 -52 -10 -97 -16 -98 -15 -5 5 -2 256
2 282 3 12 7 56 11 99 8 100 -8 130 -91 169 -47 22 -71 27 -138 27 -99 1 -139
-6 -228 -36 -172 -60 -298 -183 -291 -283 0 -7 1 -19 2 -27 0 -8 37 -56 81
-108 44 -51 107 -133 141 -181 l61 -88 -44 -17 c-135 -52 -388 -191 -526 -289
-35 -25 -65 -43 -67 -41 -9 10 -57 136 -85 226 -45 142 -70 166 -175 165 -107
-1 -233 -67 -343 -180 -114 -117 -162 -255 -119 -340 12 -22 39 -41 104 -72
48 -23 123 -63 166 -88 l78 -46 -33 -35 c-18 -20 -38 -41 -44 -47 -44 -40
-239 -301 -280 -372 -10 -18 -21 -33 -24 -33 -9 0 -180 178 -225 235 -96 119
-97 120 -162 119 -50 -1 -68 -6 -113 -36 -103 -66 -189 -182 -237 -319 -35
-99 -37 -224 -5 -285 28 -55 65 -70 187 -79 55 -4 150 -16 210 -27 61 -11 116
-20 123 -21 8 0 10 -7 6 -16 -65 -157 -139 -414 -170 -591 l-17 -99 -41 16
c-23 9 -100 44 -172 78 -72 35 -137 64 -145 65 -43 6 -70 -4 -111 -40 -112
-98 -165 -344 -113 -525 34 -117 84 -177 156 -188 13 -2 73 13 135 34 118 40
251 75 258 68 2 -2 6 -53 10 -114 3 -60 8 -121 10 -135 3 -14 7 -45 10 -70 3
-25 8 -54 10 -65 2 -11 7 -40 11 -65 4 -25 13 -69 21 -99 8 -30 11 -57 8 -60
-13 -13 -365 -3 -441 13 -40 8 -95 -16 -124 -57 -137 -189 35 -669 248 -693
55 -7 49 -10 210 121 105 86 234 175 252 175 6 0 11 -5 11 -10 0 -14 121 -262
157 -322 55 -93 107 -174 143 -223 20 -27 39 -55 43 -61 9 -16 -59 -47 -237
-109 -163 -56 -183 -70 -195 -142 -7 -38 7 -124 28 -177 23 -59 103 -166 164
-221 84 -76 173 -119 247 -120 87 0 100 11 169 149 34 66 81 152 104 189 l44
69 29 -29 c90 -88 281 -237 406 -316 35 -22 56 -42 53 -49 -8 -21 -191 -196
-287 -276 -59 -49 -90 -82 -94 -100 -3 -15 -7 -33 -10 -40 -2 -7 6 -38 18 -70
16 -43 38 -74 92 -127 141 -140 356 -215 502 -176 78 21 104 60 109 164 6 120
44 356 65 412 l9 24 53 -23 c121 -54 437 -143 573 -162 28 -3 55 -9 62 -13 15
-8 -34 -135 -111 -290 -59 -118 -65 -145 -42 -190 97 -187 558 -231 707 -68
44 48 46 83 10 183 -31 86 -95 323 -89 329 2 2 50 6 108 9 97 6 133 9 230 22
65 8 263 45 272 50 4 3 8 2 9 -3 0 -4 2 -17 5 -28 5 -25 5 -268 0 -315 -18
-152 -17 -195 4 -228 81 -131 424 -107 615 42 90 71 122 128 116 211 0 12 -37
63 -82 115 -45 52 -117 149 -161 215 l-80 119 33 15 c137 58 374 183 478 251
68 44 128 79 133 78 14 -5 79 -164 118 -285 37 -116 42 -126 75 -147 98 -64
301 8 442 157 119 126 166 263 117 346 -12 20 -43 42 -103 71 -162 77 -291
154 -291 172 0 5 19 28 41 51 35 35 94 104 208 242 9 11 43 59 75 107 l59 87
36 -31 c85 -73 301 -309 301 -328 0 -13 66 -40 97 -40 17 0 57 14 91 31 229
114 374 535 229 662 -25 21 -38 24 -142 32 -128 9 -290 33 -367 55 l-37 11 30
66 c49 110 116 322 150 480 18 81 34 149 34 150 3 6 135 -51 251 -108 67 -32
132 -60 145 -63 64 -10 147 70 194 185 29 71 30 80 29 224 0 162 -9 202 -61
278 -28 40 -84 74 -118 71 -11 0 -76 -20 -145 -43 -107 -35 -247 -73 -251 -68
-1 1 -3 31 -4 67 -5 104 -15 243 -19 266 -2 11 -7 47 -10 80 -4 32 -9 68 -11
79 -3 11 -7 31 -9 45 -2 14 -7 37 -11 51 -5 19 -2 28 9 32 16 6 320 1 351 -6
23 -5 100 -10 130 -8 48 3 98 72 115 159 49 246 -130 592 -305 591 -37 0 -62
-13 -112 -60 -38 -35 -241 -188 -295 -222 -28 -17 -28 -17 -41 15 -8 18 -25
58 -37 88 -59 137 -251 477 -281 495 -24 15 -3 35 69 63 101 40 227 82 245 82
8 0 28 13 45 30 122 116 -38 445 -273 561 -82 40 -148 48 -200 23 -31 -14 -43
-30 -67 -82 -35 -77 -125 -242 -142 -260 -10 -10 -21 -5 -55 27 -88 83 -210
187 -261 221 -19 13 -37 27 -40 30 -3 4 -35 27 -72 52 l-68 45 93 89 c50 50
129 120 174 157 85 70 95 86 95 143 0 97 -124 236 -274 307 -110 53 -170 69
-257 68 -72 0 -142 -28 -168 -67 -8 -13 -17 -48 -19 -76 -5 -88 -14 -182 -18
-203 -2 -11 -9 -54 -16 -96 -7 -42 -16 -82 -20 -89 -6 -9 -28 -4 -91 20 -178
69 -418 137 -554 157 -55 8 -56 9 -39 50 9 21 44 97 80 170 82 169 80 200 -24
280 -82 62 -139 77 -312 79 -108 2 -166 -2 -191 -11z m251 -708 c14 -3 51 -8
84 -12 69 -8 82 -10 211 -36 217 -43 467 -132 678 -241 68 -35 83 -47 81 -63
-5 -27 -4 -273 0 -307 7 -48 35 -132 55 -165 28 -45 89 -88 201 -141 52 -25
108 -54 123 -65 41 -28 74 -86 97 -169 17 -62 20 -94 16 -213 -3 -77 -8 -153
-11 -170 -4 -16 -7 -70 -7 -120 -1 -191 71 -263 310 -311 202 -40 282 -95 282
-192 0 -64 -79 -132 -170 -147 -19 -3 -42 -8 -51 -11 -30 -8 -171 -21 -324
-29 -217 -11 -359 -34 -468 -75 -147 -55 -244 -187 -239 -323 2 -70 18 -119
81 -252 67 -140 81 -177 85 -236 5 -69 -17 -129 -120 -335 -91 -181 -97 -197
-102 -266 -4 -61 -1 -83 18 -126 52 -121 190 -181 340 -148 14 3 59 13 100 22
103 23 103 23 124 12 16 -9 18 -18 12 -77 -3 -37 -12 -98 -20 -137 -8 -38 -17
-87 -20 -109 -4 -22 -8 -47 -11 -55 -2 -8 -7 -42 -10 -75 -4 -33 -9 -73 -11
-90 -6 -46 -5 -256 1 -265 6 -10 -82 -75 -188 -139 -126 -77 -248 -136 -462
-226 -94 -40 -356 -111 -475 -130 -25 -4 -54 -9 -65 -11 -19 -4 -42 -7 -140
-19 -22 -3 -97 -8 -167 -11 -119 -6 -128 -5 -134 12 -97 274 -326 456 -654
521 -120 23 -140 26 -295 38 -216 17 -258 28 -309 79 -34 34 -49 61 -79 150
-62 179 -124 278 -222 357 -137 109 -338 123 -579 40 l-85 -30 -49 77 c-74
117 -137 229 -181 322 -30 66 -40 102 -44 160 -4 44 -21 122 -42 190 -73 230
-52 410 71 596 115 175 314 314 500 350 94 18 242 17 316 -2 126 -33 229 -115
264 -212 92 -251 138 -339 259 -487 201 -247 193 -230 220 -470 11 -103 17
-141 21 -157 3 -10 7 -30 10 -44 10 -54 48 -153 104 -269 89 -185 175 -267
281 -269 79 -1 134 54 174 172 22 65 27 87 41 180 53 364 52 361 214 466 151
99 219 165 264 259 48 100 65 165 62 239 -4 77 -23 123 -72 177 -48 54 -101
85 -219 127 -110 39 -179 73 -216 106 -14 13 -57 66 -96 118 -88 121 -158 183
-256 231 -144 70 -265 73 -490 13 -204 -55 -290 -61 -388 -29 -88 30 -173 135
-217 272 -28 84 -46 239 -39 331 13 173 162 370 322 427 68 24 190 27 310 9
145 -23 301 -26 372 -7 135 35 266 132 316 235 47 95 56 146 52 290 -4 143 -3
140 -42 328 -18 87 -27 163 -29 252 -2 117 0 141 31 275 5 23 21 28 125 39 36
3 67 7 68 9 6 5 475 -2 502 -8z m-1545 -603 c-236 -216 -385 -363 -481 -474
-22 -25 -41 -47 -45 -50 -6 -6 -110 -136 -154 -195 -78 -101 -212 -316 -300
-480 -35 -66 -55 -105 -134 -265 l-32 -65 6 70 c22 257 131 550 298 800 175
262 433 493 697 622 96 47 173 80 190 82 3 0 -17 -20 -45 -45z m3150 -200
c263 -174 532 -553 656 -925 22 -66 39 -124 37 -130 -2 -5 -39 48 -82 119
-282 453 -493 749 -646 902 -8 9 -37 40 -65 69 l-50 53 50 -28 c28 -15 73 -42
100 -60z m209 -1819 c58 -5 187 -45 181 -55 -3 -4 -28 -10 -57 -14 -29 -4 -66
-9 -83 -11 -16 -3 -59 -7 -95 -9 -135 -10 -206 -17 -225 -21 -11 -2 -73 -7
-139 -11 -134 -7 -140 -2 -48 45 76 38 173 67 252 76 36 4 66 8 68 9 2 3 70
-1 146 -9z m-2110 -732 c-16 -102 -82 -181 -216 -260 -143 -85 -182 -139 -234
-323 -24 -89 -43 -120 -43 -72 0 9 -2 51 -5 92 -12 194 55 303 242 395 121 59
178 101 220 159 18 25 35 46 38 46 2 0 1 -17 -2 -37z"/>
<path d="M3277 6075 c-24 -23 -15 -175 18 -335 2 -8 7 -36 11 -62 3 -27 9 -48
13 -48 3 0 30 48 60 106 l54 107 73 -219 c95 -282 106 -323 109 -419 5 -129
-24 -264 -82 -380 -99 -195 -253 -323 -452 -374 -111 -28 -204 -21 -409 28
-96 22 -183 43 -195 45 -12 2 -40 8 -62 14 -22 5 -53 13 -69 17 -29 6 -29 7
-9 18 75 42 126 77 116 78 -7 1 -16 2 -20 3 -5 2 -44 6 -88 11 -98 12 -154 10
-199 -5 -48 -15 -120 -91 -156 -162 -28 -57 -29 -66 -25 -152 6 -134 33 -229
85 -296 23 -30 4 -39 233 111 233 152 321 181 527 174 268 -9 486 -135 608
-352 50 -90 72 -176 77 -308 2 -38 3 -73 4 -76 1 -4 29 -16 64 -29 248 -89
384 -253 393 -476 5 -115 -19 -214 -81 -340 -73 -148 -152 -223 -412 -389 -4
-2 -31 -136 -37 -185 -4 -25 -9 -67 -12 -95 -5 -41 -43 -198 -58 -240 -23 -67
-78 -149 -130 -197 -110 -102 -282 -114 -432 -31 -56 31 -152 124 -190 184
-100 159 -197 413 -218 574 -3 22 -13 93 -21 159 -16 121 -30 155 -92 221
-149 159 -277 371 -347 574 -31 92 -61 124 -133 144 -72 21 -208 16 -284 -10
-145 -49 -291 -176 -355 -309 -34 -71 -38 -88 -40 -169 -3 -80 1 -101 31 -187
18 -54 31 -98 30 -98 -2 0 0 -14 5 -32 5 -17 12 -60 15 -95 5 -60 50 -170 102
-250 l15 -23 46 39 c65 54 136 94 212 119 93 31 131 36 250 35 312 -2 563
-198 640 -500 12 -49 14 -150 5 -291 -7 -95 -6 -102 11 -103 11 -1 33 -2 49
-4 17 -1 64 -6 105 -9 343 -29 611 -130 798 -300 54 -49 150 -171 184 -234 13
-25 21 -30 45 -27 15 2 60 6 98 9 98 8 144 14 277 42 110 23 361 97 383 113 6
4 33 16 60 26 68 24 307 148 375 193 l54 37 3 90 c1 50 5 99 7 111 8 31 -1 34
-47 17 -23 -8 -85 -17 -137 -19 -81 -3 -106 0 -169 22 -183 62 -308 218 -318
399 -4 70 0 95 30 200 19 66 40 140 47 164 l11 43 24 -22 24 -22 10 43 c10 40
25 86 55 164 6 17 40 84 75 149 36 66 72 140 82 165 16 44 16 48 -2 93 -10 26
-35 80 -55 120 -126 251 -131 453 -13 624 72 106 183 189 314 236 117 43 341
75 530 78 l60 1 -74 39 c-139 74 -216 177 -246 327 -7 34 -6 207 0 248 11 62
17 295 9 295 -5 0 -44 -7 -87 -15 -334 -64 -643 201 -640 550 1 97 38 214 90
287 l35 48 -58 25 c-137 60 -433 140 -593 160 -30 4 -63 9 -75 12 -12 3 -130
7 -263 9 -199 3 -244 1 -256 -11z"/>
<path d="M4648 5700 c-107 -161 -34 -400 149 -486 48 -23 150 -39 179 -27 7 3
-27 44 -85 101 -72 72 -107 115 -133 167 -32 62 -80 195 -90 250 -3 19 -5 18
-20 -5z"/>
<path d="M3325 5177 c-120 -242 -238 -388 -391 -483 -72 -45 -75 -49 -51 -55
37 -10 127 -2 178 16 205 73 342 282 342 521 0 141 -9 141 -78 1z"/>
<path d="M2630 4111 c-36 -10 -78 -25 -95 -33 l-30 -16 25 -6 c14 -3 59 -13
100 -22 311 -68 435 -123 594 -265 l59 -54 -7 45 c-24 161 -181 313 -366 356
-63 15 -217 12 -280 -5z"/>
<path d="M1691 2279 c-57 -11 -177 -67 -165 -78 5 -4 59 -13 121 -19 130 -14
263 -50 348 -95 61 -32 255 -213 255 -239 0 -10 2 -10 9 0 13 21 -8 122 -39
190 -86 185 -301 282 -529 241z"/>
<path d="M4449 2123 c0 -4 -2 -16 -4 -26 -7 -37 26 -119 66 -162 76 -82 203
-111 302 -67 26 11 47 25 47 30 0 5 -57 37 -126 71 -70 34 -157 81 -193 104
-91 59 -91 59 -92 50z"/>
</g>
</svg>
